<?xml version="1.0" encoding="utf-8"?>
<!-- Generator: Adobe Illustrator 24.1.2, SVG Export Plug-In . SVG Version: 6.00 Build 0)  -->
<svg version="1.1" id="Layer_1" xmlns="http://www.w3.org/2000/svg" xmlns:xlink="http://www.w3.org/1999/xlink" x="0px" y="0px"
	 viewBox="0 0 60 60" style="enable-background:new 0 0 60 60;" xml:space="preserve">
<g>
	<path d="M58.8,54.5L38.5,19.3c-0.4-0.6-1-1-1.7-1s-1.4,0.4-1.7,1L14.8,54.5c-0.4,0.6-0.4,1.4,0,2c0.4,0.6,1,1,1.7,1h40.6
		c0.7,0,1.4-0.4,1.7-1C59.2,55.9,59.2,55.1,58.8,54.5z M36.8,24.3l5.8,10c-0.5-0.2-1.1-0.3-1.7-0.3c-2.5,0-3.7,1.5-4.6,2.5
		c-0.7,0.9-1,1.1-1.5,1.1s-0.8-0.2-1.5-1.1c-0.6-0.7-1.3-1.5-2.4-2.1L36.8,24.3z M20,53.5l8.9-15.4c0.5,0,0.7,0.3,1.4,1.1
		c0.8,1,2.1,2.5,4.6,2.5s3.7-1.5,4.6-2.5c0.7-0.9,1-1.1,1.5-1.1c0.5,0,0.8,0.2,1.5,1.1c0.8,1,2.1,2.5,4.5,2.5l6.8,11.8H20z"/>
	<path d="M14.7,51.5c1.1,0,2-0.9,2-2s-0.9-2-2-2H6.4l9.1-15.7c0.6,0.6,1.5,1.3,2.9,1.3c1.8,0,2.8-1.2,3.3-1.8
		c0.1-0.1,0.2-0.2,0.3-0.3c0.1,0.1,0.2,0.2,0.3,0.3c0.5,0.6,1.5,1.8,3.3,1.8c1.1,0,2-0.9,2-2c0-1.1-0.9-2-1.9-2
		c-0.1-0.1-0.2-0.2-0.3-0.4c-0.5-0.6-1.5-1.8-3.3-1.8c-1.8,0-2.8,1.2-3.3,1.8c-0.1,0.1-0.2,0.2-0.3,0.3c-0.1-0.1-0.2-0.2-0.3-0.3
		c-0.1-0.2-0.3-0.4-0.5-0.6l5.7-9.9l3.8,6.6c0.6,1,1.8,1.3,2.7,0.7c1-0.6,1.3-1.8,0.7-2.7L25,13.2c-0.4-0.6-1-1-1.7-1
		s-1.4,0.4-1.7,1l-8.4,14.5c-0.1,0.1-0.2,0.3-0.3,0.4L1.2,48.5c0,0,0,0.1,0,0.1c0,0.1-0.1,0.1-0.1,0.2c0,0.1,0,0.1-0.1,0.2
		c0,0.1,0,0.1,0,0.2c0,0.1,0,0.1,0,0.2c0,0,0,0.1,0,0.1c0,0,0,0,0,0.1c0,0.1,0,0.1,0,0.2c0,0.1,0,0.1,0,0.2C1,50,1,50,1,50.1
		c0,0.1,0,0.1,0.1,0.2c0,0.1,0.1,0.1,0.1,0.2c0,0.1,0.1,0.1,0.1,0.2c0,0.1,0.1,0.1,0.1,0.2c0,0,0.1,0.1,0.1,0.1c0,0,0.1,0.1,0.1,0.1
		c0.1,0,0.1,0.1,0.2,0.1c0,0,0,0,0.1,0c0,0,0.1,0,0.1,0c0.1,0.1,0.2,0.1,0.3,0.1c0,0,0.1,0,0.1,0c0.1,0,0.3,0.1,0.5,0.1c0,0,0,0,0,0
		c0,0,0,0,0,0c0,0,0,0,0,0H14.7z"/>
	<path d="M40.7,12.3h3.1l-2.2,2.2c-0.6,0.6-0.6,1.5,0,2.1c0.3,0.3,0.7,0.4,1.1,0.4s0.8-0.1,1.1-0.4l2.2-2.2v3.1
		c0,0.8,0.7,1.5,1.5,1.5s1.5-0.7,1.5-1.5v-3.1l2.2,2.2c0.3,0.3,0.7,0.4,1.1,0.4s0.8-0.1,1.1-0.4c0.6-0.6,0.6-1.5,0-2.1l-2.2-2.2h3.1
		c0.8,0,1.5-0.7,1.5-1.5s-0.7-1.5-1.5-1.5h-3.1l2.2-2.2c0.6-0.6,0.6-1.5,0-2.1c-0.6-0.6-1.5-0.6-2.1,0L49,7.2V4
		c0-0.8-0.7-1.5-1.5-1.5S46,3.2,46,4v3.1l-2.2-2.2c-0.6-0.6-1.5-0.6-2.1,0c-0.6,0.6-0.6,1.5,0,2.1l2.2,2.2h-3.1
		c-0.8,0-1.5,0.7-1.5,1.5S39.9,12.3,40.7,12.3z"/>
</g>
</svg>
