<?xml version="1.0" encoding="utf-8"?>
<svg version="1.1" id="Layer_1" xmlns="http://www.w3.org/2000/svg" xmlns:xlink="http://www.w3.org/1999/xlink" x="0px" y="0px"
	 viewBox="0 0 60 60" style="enable-background:new 0 0 60 60;" xml:space="preserve">
<path d="M57.2,28h-7.4c-0.4-4-2-7.7-4.4-10.6l3.2-3.2c0.8-0.8,0.8-2,0-2.8c-0.8-0.8-2-0.8-2.8,0l-3.2,3.2c-3-2.4-6.6-4-10.6-4.4V2.8
	c0-1.1-0.9-2-2-2s-2,0.9-2,2v7.4c-4,0.4-7.7,2-10.6,4.4l-3.2-3.2c-0.8-0.8-2-0.8-2.8,0c-0.8,0.8-0.8,2,0,2.8l3.2,3.2
	c-2.4,3-4,6.6-4.4,10.6H2.8c-1.1,0-2,0.9-2,2s0.9,2,2,2h7.4c0.4,4,2,7.7,4.4,10.6l-3.2,3.2c-0.8,0.8-0.8,2,0,2.8
	c0.4,0.4,0.9,0.6,1.4,0.6s1-0.2,1.4-0.6l3.2-3.2c3,2.4,6.6,4,10.6,4.4v7.4c0,1.1,0.9,2,2,2s2-0.9,2-2v-7.4c4-0.4,7.7-2,10.6-4.4
	l3.2,3.2c0.4,0.4,0.9,0.6,1.4,0.6s1-0.2,1.4-0.6c0.8-0.8,0.8-2,0-2.8l-3.2-3.2c2.4-3,4-6.6,4.4-10.6h7.4c1.1,0,2-0.9,2-2
	S58.3,28,57.2,28z M30,45.9c-8.8,0-15.9-7.2-15.9-15.9c0-8.8,7.2-15.9,15.9-15.9c8.8,0,15.9,7.2,15.9,15.9
	C45.9,38.8,38.8,45.9,30,45.9z"/>
</svg>
